<?xml version="1.0" encoding="UTF-8"?>
<svg width="19px" height="16px" viewBox="0 0 19 16" version="1.1" xmlns="http://www.w3.org/2000/svg" xmlns:xlink="http://www.w3.org/1999/xlink">
    <!-- Generator: Sketch 40.1 (33804) - http://www.bohemiancoding.com/sketch -->
    <g id="Investimentos---Fundos-de-Investimento" stroke="none" stroke-width="1" fill="none" fill-rule="evenodd">
        <g id="btg-desk-dashboard-Fundos-de-Investimento" transform="translate(-209.000000, -481.000000)" fill="#000000">
            <g id="Fundos-Title-+-Filtros" transform="translate(176.000000, 369.000000)">
                <g id="Filtros" transform="translate(0.000000, 79.000000)">
                    <g id="Page-1" transform="translate(33.000000, 33.000000)">
                        <path d="M0.358347161,2.93212121 L11.5898424,2.93212121 C11.800966,4.06848485 12.7510223,5 13.9122022,5 C15.0733821,5 16.0234384,4.06848485 16.234562,2.93212121 L18.6416528,2.93212121 C18.8316641,2.93212121 19,2.79606061 19,2.59121212 C19,2.38636364 18.8316641,2.25030303 18.6427788,2.25030303 L16.2565189,2.25030303 C16.1092954,0.886666667 15.1161698,0 13.9133282,0 C12.710205,0 11.6965302,0.886666667 11.5701375,2.25030303 L0.358347161,2.25030303 C0.169461894,2.25030303 0,2.38636364 0,2.59121212 C0,2.79606061 0.169461894,2.93212121 0.358347161,2.93212121 L0.358347161,2.93212121 Z M13.9133282,0.704242424 C14.8214413,0.704242424 15.5603739,1.49969697 15.5603739,2.47757576 C15.5603739,3.45545455 14.8214413,4.25090909 13.9133282,4.25090909 C13.0049336,4.25090909 12.2660009,3.45545455 12.2660009,2.47757576 C12.2660009,1.49969697 13.0049336,0.704242424 13.9133282,0.704242424 L13.9133282,0.704242424 Z" id="Fill-1"></path>
                        <path d="M18.6427788,8.25030303 L9.03665402,8.25030303 C8.88914899,6.88666667 7.89630497,6 6.69318182,6 C5.48921418,6 4.49749615,6.88666667 4.34886512,8.25030303 L0.358347161,8.25030303 C0.169461894,8.25030303 0,8.38636364 0,8.59121212 C0,8.79606061 0.169461894,8.93212121 0.358347161,8.93212121 L4.36969598,8.93212121 C4.5808196,10.0684848 5.5308759,11 6.69205583,11 C7.85323575,11 8.80329205,10.0684848 9.01441567,8.93212121 L18.6416528,8.93212121 C18.8316641,8.93212121 19,8.79606061 19,8.59121212 C19,8.38636364 18.8316641,8.25030303 18.6427788,8.25030303 L18.6427788,8.25030303 Z M6.69205583,10.2509091 C5.78394275,10.2509091 5.04501007,9.45545455 5.04501007,8.47757576 C5.04501007,7.49969697 5.78394275,6.70424242 6.69205583,6.70424242 C7.6004504,6.70424242 8.33938307,7.49969697 8.33938307,8.47757576 C8.33938307,9.45545455 7.6004504,10.2509091 6.69205583,10.2509091 L6.69205583,10.2509091 Z" id="Fill-2"></path>
                        <path d="M18.6416741,13.250303 L13.8486074,13.250303 C13.7013926,11.8866667 12.7083259,11 11.5055556,11 C10.3027852,11 9.28888889,11.8866667 9.1625037,13.250303 L0.358325926,13.250303 C0.169451852,13.250303 0,13.3863636 0,13.5912121 C0,13.7960606 0.169451852,13.9321212 0.358325926,13.9321212 L9.18333333,13.9321212 C9.39444444,15.2957576 10.3444444,16 11.5055556,16 C12.6666667,16 13.6166667,15.2957576 13.8277778,13.9321212 L18.6416741,13.9321212 C18.8316741,13.9321212 19,13.7960606 19,13.5912121 C19,13.3863636 18.8305481,13.250303 18.6416741,13.250303 L18.6416741,13.250303 Z M11.5055556,15.2733333 C10.5972148,15.2733333 9.85832593,14.4778788 9.85832593,13.5 C9.85832593,12.5224242 10.5972148,11.7269697 11.5055556,11.7269697 C12.4138963,11.7269697 13.1527852,12.5224242 13.1527852,13.5 C13.1527852,14.4778788 12.4138963,15.2733333 11.5055556,15.2733333 L11.5055556,15.2733333 Z" id="Fill-3"></path>
                    </g>
                </g>
            </g>
        </g>
    </g>
</svg>